<svg xmlns="http://www.w3.org/2000/svg" xmlns:xlink="http://www.w3.org/1999/xlink" id="processonSvg1000" viewBox="0.5 9.0 1400.0 969.3333320617676" width="1400.0" height="969.3333320617676"><defs id="ProcessOnDefs1001"><marker id="ProcessOnMarker1018" markerUnits="userSpaceOnUse" orient="auto" markerWidth="16.23606797749979" markerHeight="10.550836550532098" viewBox="-1.0 -1.3763819204711736 16.23606797749979 10.550836550532098" refX="-1.0" refY="3.8990363547948754"><path id="ProcessOnPath1019" d="M12.0 3.8990363547948754L0.0 7.798072709589751V0.0Z" stroke="#323232" stroke-width="2.0" fill="#fff" transform="matrix(1.0,0.0,0.0,1.0,0.0,0.0)"/></marker><marker id="ProcessOnMarker1025" markerUnits="userSpaceOnUse" orient="auto" markerWidth="14.289086868996552" markerHeight="19.055054660878554" viewBox="-0.5877852522924731 -0.8090169943749475 14.289086868996552 19.055054660878554" refX="12.0" refY="8.71851033606433"><path id="ProcessOnPath1026" d="M0 0L12.0 8.71851033606433L0 17.43702067212866" stroke="#323232" stroke-width="2.0" fill="none" transform="matrix(1.0,0.0,0.0,1.0,0.0,0.0)"/></marker><marker id="ProcessOnMarker1070" markerUnits="userSpaceOnUse" orient="auto" markerWidth="16.23606797749979" markerHeight="10.550836550532098" viewBox="-1.0 -1.3763819204711736 16.23606797749979 10.550836550532098" refX="-1.0" refY="3.8990363547948754"><path id="ProcessOnPath1071" d="M12.0 3.8990363547948754L0.0 7.798072709589751V0.0Z" stroke="#323232" stroke-width="2.0" fill="#fff" transform="matrix(1.0,0.0,0.0,1.0,0.0,0.0)"/></marker><marker id="ProcessOnMarker1089" markerUnits="userSpaceOnUse" orient="auto" markerWidth="16.23606797749979" markerHeight="10.550836550532098" viewBox="-1.0 -1.3763819204711736 16.23606797749979 10.550836550532098" refX="-1.0" refY="3.8990363547948754"><path id="ProcessOnPath1090" d="M12.0 3.8990363547948754L0.0 7.798072709589751V0.0Z" stroke="#323232" stroke-width="2.0" fill="#fff" transform="matrix(1.0,0.0,0.0,1.0,0.0,0.0)"/></marker><marker id="ProcessOnMarker1109" markerUnits="userSpaceOnUse" orient="auto" markerWidth="16.23606797749979" markerHeight="10.550836550532098" viewBox="-1.0 -1.3763819204711736 16.23606797749979 10.550836550532098" refX="-1.0" refY="3.8990363547948754"><path id="ProcessOnPath1110" d="M12.0 3.8990363547948754L0.0 7.798072709589751V0.0Z" stroke="#323232" stroke-width="2.0" fill="#fff" transform="matrix(1.0,0.0,0.0,1.0,0.0,0.0)"/></marker><marker id="ProcessOnMarker1131" markerUnits="userSpaceOnUse" orient="auto" markerWidth="14.289086868996552" markerHeight="19.055054660878554" viewBox="-0.5877852522924731 -0.8090169943749475 14.289086868996552 19.055054660878554" refX="12.0" refY="8.71851033606433"><path id="ProcessOnPath1132" d="M0 0L12.0 8.71851033606433L0 17.43702067212866" stroke="#323232" stroke-width="2.0" fill="none" transform="matrix(1.0,0.0,0.0,1.0,0.0,0.0)"/></marker><marker id="ProcessOnMarker1154" markerUnits="userSpaceOnUse" orient="auto" markerWidth="20.609529741924973" markerHeight="10.888175666885001" viewBox="-2.3047648709624866 -1.5914908829822711 20.609529741924973 10.888175666885001" refX="0.0" refY="3.8525969504602293"><path id="ProcessOnPath1155" d="M0 3.8525969504602293L8.0 0L16.0 3.8525969504602293L8.0 7.705193900920459Z" stroke="#323232" stroke-width="2.0" fill="#323232"/></marker><marker id="ProcessOnMarker1193" markerUnits="userSpaceOnUse" orient="auto" markerWidth="20.609529741924973" markerHeight="10.888175666885001" viewBox="-2.3047648709624866 -1.5914908829822711 20.609529741924973 10.888175666885001" refX="0.0" refY="3.8525969504602293"><path id="ProcessOnPath1194" d="M0 3.8525969504602293L8.0 0L16.0 3.8525969504602293L8.0 7.705193900920459Z" stroke="#323232" stroke-width="2.0" fill="#323232"/></marker><marker id="ProcessOnMarker1200" markerUnits="userSpaceOnUse" orient="auto" markerWidth="20.609529741924973" markerHeight="10.888175666885001" viewBox="-2.3047648709624866 -1.5914908829822711 20.609529741924973 10.888175666885001" refX="0.0" refY="3.8525969504602293"><path id="ProcessOnPath1201" d="M0 3.8525969504602293L8.0 0L16.0 3.8525969504602293L8.0 7.705193900920459Z" stroke="#323232" stroke-width="2.0" fill="#323232"/></marker></defs><g id="ProcessOnG1002"><path id="ProcessOnPath1003" d="M0.5 9.0H1400.5V978.3333320617676H0.5V9.0Z" fill="none"/><g id="ProcessOnG1004"><g id="ProcessOnG1005" transform="matrix(1.0,0.0,0.0,1.0,551.0,414.25)" opacity="1.0"><path id="ProcessOnPath1006" d="M0.0 4.0Q0.0 0.0 4.0 0.0L435.0 0.0Q439.0 0.0 439.0 4.0L439.0 104.5Q439.0 108.5 435.0 108.5L4.0 108.5Q0.0 108.5 0.0 104.5Z" stroke="#323232" stroke-width="2.0" stroke-dasharray="none" opacity="1.0" fill="#ffffff"/><path id="ProcessOnPath1007" d="M0.0 30.0L439.0 30.0M0.0 62.66666793823242L439.0 62.66666793823242" stroke="#323232" stroke-width="2.0" stroke-dasharray="none" opacity="1.0" fill="none"/><path id="ProcessOnPath1008" d="M0.0 0.0L439.0 0.0L439.0 108.5L0.0 108.5Z" stroke="none" stroke-width="0.0" stroke-dasharray="none" opacity="1.0" fill="none"/><g id="ProcessOnG1009" transform="matrix(1.0,0.0,0.0,1.0,10.0,6.875)"><text id="ProcessOnText1010" fill="#000000" font-size="13" x="208.5" y="13.325" font-family="微软雅黑" font-weight="bold" font-style="normal" text-decoration="none" family="微软雅黑" text-anchor="middle" size="13">ReactEngineProxy</text></g><g id="ProcessOnG1011" transform="matrix(1.0,0.0,0.0,1.0,10.0,38.20833396911621)"><text id="ProcessOnText1012" fill="#000000" font-size="13" x="208.5" y="13.325" font-family="微软雅黑" font-weight="bold" font-style="normal" text-decoration="none" family="微软雅黑" text-anchor="middle" size="13">+ ReactEngineTool reactEngineTool;</text></g><g id="ProcessOnG1013" transform="matrix(1.0,0.0,0.0,1.0,10.0,62.75000190734863)"><text id="ProcessOnText1014" fill="#000000" font-size="13" x="208.5" y="13.325" font-family="微软雅黑" font-weight="bold" font-style="normal" text-decoration="none" family="微软雅黑" text-anchor="middle" size="13">+ ReactEngineProxy(String reactConfig);</text><text id="ProcessOnText1015" fill="#000000" font-size="13" x="208.5" y="29.575" font-family="微软雅黑" font-weight="bold" font-style="normal" text-decoration="none" family="微软雅黑" text-anchor="middle" size="13">+ render(String jsonModel, RenderingContext routerCtx): string;</text></g></g><g id="ProcessOnG1016"><path id="ProcessOnPath1017" d="M233.5 567.5L233.5 535.75L233.5 535.75L233.5 519.2360679774998" stroke="#323232" stroke-width="2.0" stroke-dasharray="2.0 3.0" fill="none" marker-end="url(#ProcessOnMarker1018)"/><g id="ProcessOnG1020" transform="matrix(1.0,0.0,0.0,1.0,233.5,535.2430339887499)"><path id="ProcessOnPath1021" d="M0 0H26.0V16.25H0Z" fill="#fff" transform="matrix(1.0,0.0,0.0,1.0,-13.0,0.0)"/><text id="ProcessOnText1022" fill="#000000" font-size="13" x="0.0" y="13.325" font-family="微软雅黑" font-weight="normal" font-style="normal" text-decoration="none" family="微软雅黑" text-anchor="middle" size="13">实现</text></g></g><g id="ProcessOnG1023"><path id="ProcessOnPath1024" d="M551.0 468.5L496.5 468.5L496.5 429.5L442.0 429.5" stroke="#323232" stroke-width="2.0" stroke-dasharray="none" fill="none" marker-end="url(#ProcessOnMarker1025)"/><g id="ProcessOnG1027" transform="matrix(1.0,0.0,0.0,1.0,496.5,440.875)"><path id="ProcessOnPath1028" d="M0 0H26.0V16.25H0Z" fill="#fff" transform="matrix(1.0,0.0,0.0,1.0,-13.0,0.0)"/><text id="ProcessOnText1029" fill="#000000" font-size="13" x="0.0" y="13.325" font-family="微软雅黑" font-weight="normal" font-style="normal" text-decoration="none" family="微软雅黑" text-anchor="middle" size="13">关联</text></g></g><g id="ProcessOnG1030" transform="matrix(1.0,0.0,0.0,1.0,20.5,360.5)" opacity="1.0"><path id="ProcessOnPath1031" d="M0.0 4.0Q0.0 0.0 4.0 0.0L422.0 0.0Q426.0 0.0 426.0 4.0L426.0 134.0Q426.0 138.0 422.0 138.0L4.0 138.0Q0.0 138.0 0.0 134.0Z" stroke="#323232" stroke-width="2.0" stroke-dasharray="none" opacity="1.0" fill="#ffffff"/><path id="ProcessOnPath1032" d="M0.0 30.0L426.0 30.0" stroke="#323232" stroke-width="2.0" stroke-dasharray="none" opacity="1.0" fill="none"/><path id="ProcessOnPath1033" d="M0.0 0.0L426.0 0.0L426.0 138.0L0.0 138.0Z" stroke="none" stroke-width="0.0" stroke-dasharray="none" opacity="1.0" fill="none"/><g id="ProcessOnG1034" transform="matrix(1.0,0.0,0.0,1.0,10.0,6.875)"><text id="ProcessOnText1035" fill="#000000" font-size="13" x="202.0" y="13.325" font-family="微软雅黑" font-weight="bold" font-style="normal" text-decoration="none" family="微软雅黑" text-anchor="middle" size="13">&lt;&lt;ReactEngineTool&gt;&gt;</text></g><g id="ProcessOnG1036" transform="matrix(1.0,0.0,0.0,1.0,10.0,43.375)"><text id="ProcessOnText1037" fill="#000000" font-size="13" x="202.0" y="13.325" font-family="微软雅黑" font-weight="bold" font-style="normal" text-decoration="none" family="微软雅黑" text-anchor="middle" size="13">+render(String jsonModel, RenderingContext routerCtx): string;</text><text id="ProcessOnText1038" fill="#000000" font-size="13" x="202.0" y="29.575" font-family="微软雅黑" font-weight="bold" font-style="normal" text-decoration="none" family="微软雅黑" text-anchor="middle" size="13">+readDynamicJs(String path): string;</text><text id="ProcessOnText1039" fill="#000000" font-size="13" x="202.0" y="45.825" font-family="微软雅黑" font-weight="bold" font-style="normal" text-decoration="none" family="微软雅黑" text-anchor="middle" size="13">+readMainJs(String mainJsPath): string;</text><text id="ProcessOnText1040" fill="#000000" font-size="13" x="202.0" y="62.075" font-family="微软雅黑" font-weight="bold" font-style="normal" text-decoration="none" family="微软雅黑" text-anchor="middle" size="13">+getMainJsPath(String path): string;</text><text id="ProcessOnText1041" fill="#000000" font-size="13" x="202.0" y="78.325" font-family="微软雅黑" font-weight="bold" font-style="normal" text-decoration="none" family="微软雅黑" text-anchor="middle" size="13">+getResourceAsString(String path): string;</text></g></g><g id="ProcessOnG1042" transform="matrix(1.0,0.0,0.0,1.0,20.5,567.5)" opacity="1.0"><path id="ProcessOnPath1043" d="M0.0 4.0Q0.0 0.0 4.0 0.0L422.0 0.0Q426.0 0.0 426.0 4.0L426.0 134.0Q426.0 138.0 422.0 138.0L4.0 138.0Q0.0 138.0 0.0 134.0Z" stroke="#323232" stroke-width="2.0" stroke-dasharray="none" opacity="1.0" fill="#ffffff"/><path id="ProcessOnPath1044" d="M0.0 30.0L426.0 30.0" stroke="#323232" stroke-width="2.0" stroke-dasharray="none" opacity="1.0" fill="none"/><path id="ProcessOnPath1045" d="M0.0 0.0L426.0 0.0L426.0 138.0L0.0 138.0Z" stroke="none" stroke-width="0.0" stroke-dasharray="none" opacity="1.0" fill="none"/><g id="ProcessOnG1046" transform="matrix(1.0,0.0,0.0,1.0,10.0,6.875)"><text id="ProcessOnText1047" fill="#000000" font-size="13" x="202.0" y="13.325" font-family="微软雅黑" font-weight="bold" font-style="normal" text-decoration="none" family="微软雅黑" text-anchor="middle" size="13">ReactAbstractEngine</text></g><g id="ProcessOnG1048" transform="matrix(1.0,0.0,0.0,1.0,10.0,43.375)"><text id="ProcessOnText1049" fill="#000000" font-size="13" x="202.0" y="13.325" font-family="微软雅黑" font-weight="bold" font-style="normal" text-decoration="none" family="微软雅黑" text-anchor="middle" size="13">+render(String jsonModel, RenderingContext routerCtx): string;</text><text id="ProcessOnText1050" fill="#000000" font-size="13" x="202.0" y="29.575" font-family="微软雅黑" font-weight="bold" font-style="normal" text-decoration="none" family="微软雅黑" text-anchor="middle" size="13">+readDynamicJs(String path): string;</text><text id="ProcessOnText1051" fill="#000000" font-size="13" x="202.0" y="45.825" font-family="微软雅黑" font-weight="bold" font-style="normal" text-decoration="none" family="微软雅黑" text-anchor="middle" size="13">+readMainJs(String mainJsPath): string;</text><text id="ProcessOnText1052" fill="#000000" font-size="13" x="202.0" y="62.075" font-family="微软雅黑" font-weight="bold" font-style="normal" text-decoration="none" family="微软雅黑" text-anchor="middle" size="13">+getMainJsPath(String path): string;</text><text id="ProcessOnText1053" fill="#000000" font-size="13" x="202.0" y="78.325" font-family="微软雅黑" font-weight="bold" font-style="normal" text-decoration="none" family="微软雅黑" text-anchor="middle" size="13">+getResourceAsString(String path): string;</text></g></g><g id="ProcessOnG1054" transform="matrix(1.0,0.0,0.0,1.0,20.5,790.3333435058594)" opacity="1.0"><path id="ProcessOnPath1055" d="M0.0 4.0Q0.0 0.0 4.0 0.0L422.0 0.0Q426.0 0.0 426.0 4.0L426.0 138.9999885559082Q426.0 142.9999885559082 422.0 142.9999885559082L4.0 142.9999885559082Q0.0 142.9999885559082 0.0 138.9999885559082Z" stroke="#323232" stroke-width="2.0" stroke-dasharray="none" opacity="1.0" fill="#ffffff"/><path id="ProcessOnPath1056" d="M0.0 30.0L426.0 30.0M0.0 96.0L426.0 96.0" stroke="#323232" stroke-width="2.0" stroke-dasharray="none" opacity="1.0" fill="none"/><path id="ProcessOnPath1057" d="M0.0 0.0L426.0 0.0L426.0 142.9999885559082L0.0 142.9999885559082Z" stroke="none" stroke-width="0.0" stroke-dasharray="none" opacity="1.0" fill="none"/><g id="ProcessOnG1058" transform="matrix(1.0,0.0,0.0,1.0,10.0,6.875)"><text id="ProcessOnText1059" fill="#000000" font-size="13" x="202.0" y="13.325" font-family="微软雅黑" font-weight="bold" font-style="normal" text-decoration="none" family="微软雅黑" text-anchor="middle" size="13">HTMLReactTemplateView</text></g><g id="ProcessOnG1060" transform="matrix(1.0,0.0,0.0,1.0,10.0,29.5)"><text id="ProcessOnText1061" fill="#000000" font-size="13" x="202.0" y="13.325" font-family="微软雅黑" font-weight="bold" font-style="normal" text-decoration="none" family="微软雅黑" text-anchor="middle" size="13"></text><text id="ProcessOnText1062" fill="#000000" font-size="13" x="202.0" y="29.575" font-family="微软雅黑" font-weight="bold" font-style="normal" text-decoration="none" family="微软雅黑" text-anchor="middle" size="13">+ String templateUrl；</text><text id="ProcessOnText1063" fill="#000000" font-size="13" x="202.0" y="45.825" font-family="微软雅黑" font-weight="bold" font-style="normal" text-decoration="none" family="微软雅黑" text-anchor="middle" size="13">+ static String templateCache</text><text id="ProcessOnText1064" fill="#000000" font-size="13" x="202.0" y="62.075" font-family="微软雅黑" font-weight="bold" font-style="normal" text-decoration="none" family="微软雅黑" text-anchor="middle" size="13"></text></g><g id="ProcessOnG1065" transform="matrix(1.0,0.0,0.0,1.0,10.0,104.2499942779541)"><text id="ProcessOnText1066" fill="#000000" font-size="13" x="202.0" y="13.325" font-family="微软雅黑" font-weight="bold" font-style="normal" text-decoration="none" family="微软雅黑" text-anchor="middle" size="13">+ getTemplate():string;</text><text id="ProcessOnText1067" fill="#000000" font-size="13" x="202.0" y="29.575" font-family="微软雅黑" font-weight="bold" font-style="normal" text-decoration="none" family="微软雅黑" text-anchor="middle" size="13">+ render(String jsonModel, RenderingContext routerCtx):string;</text></g></g><g id="ProcessOnG1068"><path id="ProcessOnPath1069" d="M233.5 790.3333435058594L233.5 747.9166717529297L233.5 747.9166717529297L233.5 720.7360679774998" stroke="#323232" stroke-width="2.0" stroke-dasharray="none" fill="none" marker-end="url(#ProcessOnMarker1070)"/><g id="ProcessOnG1072" transform="matrix(1.0,0.0,0.0,1.0,233.5,747.4097057416795)"><path id="ProcessOnPath1073" d="M0 0H26.0V16.25H0Z" fill="#fff" transform="matrix(1.0,0.0,0.0,1.0,-13.0,0.0)"/><text id="ProcessOnText1074" fill="#000000" font-size="13" x="0.0" y="13.325" font-family="微软雅黑" font-weight="normal" font-style="normal" text-decoration="none" family="微软雅黑" text-anchor="middle" size="13">泛化</text></g></g><g id="ProcessOnG1075" transform="matrix(1.0,0.0,0.0,1.0,531.0,564.6666717529297)" opacity="1.0"><path id="ProcessOnPath1076" d="M0.0 4.0Q0.0 0.0 4.0 0.0L571.0 0.0Q575.0 0.0 575.0 4.0L575.0 139.66665649414062Q575.0 143.66665649414062 571.0 143.66665649414062L4.0 143.66665649414062Q0.0 143.66665649414062 0.0 139.66665649414062Z" stroke="#323232" stroke-width="2.0" stroke-dasharray="none" opacity="1.0" fill="#ffffff"/><path id="ProcessOnPath1077" d="M0.0 30.0L575.0 30.0" stroke="#323232" stroke-width="2.0" stroke-dasharray="none" opacity="1.0" fill="none"/><path id="ProcessOnPath1078" d="M0.0 0.0L575.0 0.0L575.0 143.66665649414062L0.0 143.66665649414062Z" stroke="none" stroke-width="0.0" stroke-dasharray="none" opacity="1.0" fill="none"/><g id="ProcessOnG1079" transform="matrix(1.0,0.0,0.0,1.0,10.0,6.875)"><text id="ProcessOnText1080" fill="#000000" font-size="13" x="276.5" y="13.325" font-family="微软雅黑" font-weight="bold" font-style="normal" text-decoration="none" family="微软雅黑" text-anchor="middle" size="13">J2V8ReactEnginer</text></g><g id="ProcessOnG1081" transform="matrix(1.0,0.0,0.0,1.0,10.0,46.20832824707031)"><text id="ProcessOnText1082" fill="#000000" font-size="13" x="276.5" y="13.325" font-family="微软雅黑" font-weight="bold" font-style="normal" text-decoration="none" family="微软雅黑" text-anchor="middle" size="13">+ createRuntime(List&lt;V8Value&gt; runtimeObjects, RenderingContext routerCtx):V8;</text><text id="ProcessOnText1083" fill="#000000" font-size="13" x="276.5" y="29.575" font-family="微软雅黑" font-weight="bold" font-style="normal" text-decoration="none" family="微软雅黑" text-anchor="middle" size="13">+ initRuntime(V8 runtime, List&lt;V8Value&gt; runtimeObject, RenderingContext routerCtx);</text><text id="ProcessOnText1084" fill="#000000" font-size="13" x="276.5" y="45.825" font-family="微软雅黑" font-weight="bold" font-style="normal" text-decoration="none" family="微软雅黑" text-anchor="middle" size="13">+ executeScript(V8 runtime, List&lt;V8Value&gt; runtimeObjects, String script);</text><text id="ProcessOnText1085" fill="#000000" font-size="13" x="276.5" y="62.075" font-family="微软雅黑" font-weight="bold" font-style="normal" text-decoration="none" family="微软雅黑" text-anchor="middle" size="13">+ render(String jsonModel, RenderingContext routerCtx): string;</text><text id="ProcessOnText1086" fill="#000000" font-size="13" x="276.5" y="78.325" font-family="微软雅黑" font-weight="bold" font-style="normal" text-decoration="none" family="微软雅黑" text-anchor="middle" size="13">+ releaseRuntime(V8 runtime, List&lt;V8Value&gt; runtimeObjects);</text></g></g><g id="ProcessOnG1087"><path id="ProcessOnPath1088" d="M531.0 636.5L488.75 636.5L488.75 636.5L461.7360679774998 636.5" stroke="#323232" stroke-width="2.0" stroke-dasharray="none" fill="none" marker-end="url(#ProcessOnMarker1089)"/></g><g id="ProcessOnG1091" transform="matrix(1.0,0.0,0.0,1.0,554.3333320617676,771.3333435058594)" opacity="1.0"><path id="ProcessOnPath1092" d="M0.0 4.0Q0.0 0.0 4.0 0.0L558.6666679382324 0.0Q562.6666679382324 0.0 562.6666679382324 4.0L562.6666679382324 182.9999885559082Q562.6666679382324 186.9999885559082 558.6666679382324 186.9999885559082L4.0 186.9999885559082Q0.0 186.9999885559082 0.0 182.9999885559082Z" stroke="#323232" stroke-width="2.0" stroke-dasharray="none" opacity="1.0" fill="#ffffff"/><path id="ProcessOnPath1093" d="M0.0 30.0L562.6666679382324 30.0M0.0 96.0L562.6666679382324 96.0" stroke="#323232" stroke-width="2.0" stroke-dasharray="none" opacity="1.0" fill="none"/><path id="ProcessOnPath1094" d="M0.0 0.0L562.6666679382324 0.0L562.6666679382324 186.9999885559082L0.0 186.9999885559082Z" stroke="none" stroke-width="0.0" stroke-dasharray="none" opacity="1.0" fill="none"/><g id="ProcessOnG1095" transform="matrix(1.0,0.0,0.0,1.0,10.0,6.875)"><text id="ProcessOnText1096" fill="#000000" font-size="13" x="270.3333339691162" y="13.325" font-family="微软雅黑" font-weight="bold" font-style="normal" text-decoration="none" family="微软雅黑" text-anchor="middle" size="13">RhinoReactEnginer</text></g><g id="ProcessOnG1097" transform="matrix(1.0,0.0,0.0,1.0,10.0,29.5)"><text id="ProcessOnText1098" fill="#000000" font-size="13" x="270.3333339691162" y="13.325" font-family="微软雅黑" font-weight="bold" font-style="normal" text-decoration="none" family="微软雅黑" text-anchor="middle" size="13"></text><text id="ProcessOnText1099" fill="#000000" font-size="13" x="270.3333339691162" y="29.575" font-family="微软雅黑" font-weight="bold" font-style="normal" text-decoration="none" family="微软雅黑" text-anchor="middle" size="13">+ static final ThreadLocal&lt;Map&lt;Object, ScriptEngine&gt;&gt; enginesHolder；</text><text id="ProcessOnText1100" fill="#000000" font-size="13" x="270.3333339691162" y="45.825" font-family="微软雅黑" font-weight="bold" font-style="normal" text-decoration="none" family="微软雅黑" text-anchor="middle" size="13">+ volatile ScriptEngineManager scriptEngineManager;</text><text id="ProcessOnText1101" fill="#000000" font-size="13" x="270.3333339691162" y="62.075" font-family="微软雅黑" font-weight="bold" font-style="normal" text-decoration="none" family="微软雅黑" text-anchor="middle" size="13"></text></g><g id="ProcessOnG1102" transform="matrix(1.0,0.0,0.0,1.0,10.0,109.9999942779541)"><text id="ProcessOnText1103" fill="#000000" font-size="13" x="270.3333339691162" y="13.325" font-family="微软雅黑" font-weight="bold" font-style="normal" text-decoration="none" family="微软雅黑" text-anchor="middle" size="13">+ getEngine(RenderingContext routerCtx):ScriptEngine;</text><text id="ProcessOnText1104" fill="#000000" font-size="13" x="270.3333339691162" y="29.575" font-family="微软雅黑" font-weight="bold" font-style="normal" text-decoration="none" family="微软雅黑" text-anchor="middle" size="13">+ createEngine(RenderingContext routerCtx):ScriptEngine;</text><text id="ProcessOnText1105" fill="#000000" font-size="13" x="270.3333339691162" y="45.825" font-family="微软雅黑" font-weight="bold" font-style="normal" text-decoration="none" family="微软雅黑" text-anchor="middle" size="13">+ initEngine(ScriptEngine engine, RenderingContext routerCtx);</text><text id="ProcessOnText1106" fill="#000000" font-size="13" x="270.3333339691162" y="62.075" font-family="微软雅黑" font-weight="bold" font-style="normal" text-decoration="none" family="微软雅黑" text-anchor="middle" size="13">+ render(String jsonModel, RenderingContext routerCtx):string;</text></g></g><g id="ProcessOnG1107"><path id="ProcessOnPath1108" d="M554.3333320617676 849.1666717529297L512.4166660308838 849.1666717529297L512.4166660308838 636.5L461.7360679774998 636.5" stroke="#323232" stroke-width="2.0" stroke-dasharray="none" fill="none" marker-end="url(#ProcessOnMarker1109)"/><g id="ProcessOnG1111" transform="matrix(1.0,0.0,0.0,1.0,512.4166660308838,730.3263698652147)"><path id="ProcessOnPath1112" d="M0 0H26.0V16.25H0Z" fill="#fff" transform="matrix(1.0,0.0,0.0,1.0,-13.0,0.0)"/><text id="ProcessOnText1113" fill="#000000" font-size="13" x="0.0" y="13.325" font-family="微软雅黑" font-weight="normal" font-style="normal" text-decoration="none" family="微软雅黑" text-anchor="middle" size="13">泛化</text></g></g><g id="ProcessOnG1114" transform="matrix(1.0,0.0,0.0,1.0,478.5,84.0)" opacity="1.0"><path id="ProcessOnPath1115" d="M0.0 4.0Q0.0 0.0 4.0 0.0L382.0 0.0Q386.0 0.0 386.0 4.0L386.0 167.0Q386.0 171.0 382.0 171.0L4.0 171.0Q0.0 171.0 0.0 167.0Z" stroke="#323232" stroke-width="2.0" stroke-dasharray="none" opacity="1.0" fill="#ffffff"/><path id="ProcessOnPath1116" d="M0.0 30.0L386.0 30.0M0.0 60.0L386.0 60.0" stroke="#323232" stroke-width="2.0" stroke-dasharray="none" opacity="1.0" fill="none"/><path id="ProcessOnPath1117" d="M0.0 0.0L386.0 0.0L386.0 171.0L0.0 171.0Z" stroke="none" stroke-width="0.0" stroke-dasharray="none" opacity="1.0" fill="none"/><g id="ProcessOnG1118" transform="matrix(1.0,0.0,0.0,1.0,10.0,6.875)"><text id="ProcessOnText1119" fill="#000000" font-size="13" x="182.0" y="13.325" font-family="微软雅黑" font-weight="bold" font-style="normal" text-decoration="none" family="微软雅黑" text-anchor="middle" size="13">ReactEngineFilter</text></g><g id="ProcessOnG1120" transform="matrix(1.0,0.0,0.0,1.0,10.0,36.875)"><text id="ProcessOnText1121" fill="#000000" font-size="13" x="182.0" y="13.325" font-family="微软雅黑" font-weight="bold" font-style="normal" text-decoration="none" family="微软雅黑" text-anchor="middle" size="13">+ ReactEngineProxy react</text></g><g id="ProcessOnG1122" transform="matrix(1.0,0.0,0.0,1.0,10.0,67.58333206176758)"><text id="ProcessOnText1123" fill="#000000" font-size="13" x="182.0" y="13.325" font-family="微软雅黑" font-weight="bold" font-style="normal" text-decoration="none" family="微软雅黑" text-anchor="middle" size="13">+ ReactEngineFilter()；</text><text id="ProcessOnText1124" fill="#000000" font-size="13" x="182.0" y="29.575" font-family="微软雅黑" font-weight="bold" font-style="normal" text-decoration="none" family="微软雅黑" text-anchor="middle" size="13">+ ReactEngineFilter(String engineName)；</text><text id="ProcessOnText1125" fill="#000000" font-size="13" x="182.0" y="45.825" font-family="微软雅黑" font-weight="bold" font-style="normal" text-decoration="none" family="微软雅黑" text-anchor="middle" size="13">+ init(FilterConfig filterConfig)；</text><text id="ProcessOnText1126" fill="#000000" font-size="13" x="182.0" y="62.075" font-family="微软雅黑" font-weight="bold" font-style="normal" text-decoration="none" family="微软雅黑" text-anchor="middle" size="13">+ doFilter();</text><text id="ProcessOnText1127" fill="#000000" font-size="13" x="182.0" y="78.325" font-family="微软雅黑" font-weight="bold" font-style="normal" text-decoration="none" family="微软雅黑" text-anchor="middle" size="13">+ destroy();</text><text id="ProcessOnText1128" fill="#000000" font-size="13" x="182.0" y="94.575" font-family="微软雅黑" font-weight="bold" font-style="normal" text-decoration="none" family="微软雅黑" text-anchor="middle" size="13">+ getRequestAttribute(HttpServletRequest request);</text></g></g><g id="ProcessOnG1129"><path id="ProcessOnPath1130" d="M671.5 255.0L671.5 334.625L770.5 334.625L770.5 414.25" stroke="#323232" stroke-width="2.0" stroke-dasharray="none" fill="none" marker-end="url(#ProcessOnMarker1131)"/><g id="ProcessOnG1133" transform="matrix(1.0,0.0,0.0,1.0,721.0,326.5)"><path id="ProcessOnPath1134" d="M0 0H26.0V16.25H0Z" fill="#fff" transform="matrix(1.0,0.0,0.0,1.0,-13.0,0.0)"/><text id="ProcessOnText1135" fill="#000000" font-size="13" x="0.0" y="13.325" font-family="微软雅黑" font-weight="normal" font-style="normal" text-decoration="none" family="微软雅黑" text-anchor="middle" size="13">关联</text></g></g><g id="ProcessOnG1136" transform="matrix(1.0,0.0,0.0,1.0,37.0,46.83333396911621)" opacity="1.0"><path id="ProcessOnPath1137" d="M0.0 4.0Q0.0 0.0 4.0 0.0L380.5 0.0Q384.5 0.0 384.5 4.0L384.5 167.49999809265137Q384.5 171.49999809265137 380.5 171.49999809265137L4.0 171.49999809265137Q0.0 171.49999809265137 0.0 167.49999809265137Z" stroke="#323232" stroke-width="2.0" stroke-dasharray="none" opacity="1.0" fill="#ffffff"/><path id="ProcessOnPath1138" d="M0.0 30.0L384.5 30.0M0.0 96.0L384.5 96.0" stroke="#323232" stroke-width="2.0" stroke-dasharray="none" opacity="1.0" fill="none"/><path id="ProcessOnPath1139" d="M0.0 0.0L384.5 0.0L384.5 171.49999809265137L0.0 171.49999809265137Z" stroke="none" stroke-width="0.0" stroke-dasharray="none" opacity="1.0" fill="none"/><g id="ProcessOnG1140" transform="matrix(1.0,0.0,0.0,1.0,10.0,6.875)"><text id="ProcessOnText1141" fill="#000000" font-size="13" x="181.25" y="13.325" font-family="微软雅黑" font-weight="bold" font-style="normal" text-decoration="none" family="微软雅黑" text-anchor="middle" size="13">ReactResponseWrapper</text></g><g id="ProcessOnG1142" transform="matrix(1.0,0.0,0.0,1.0,10.0,29.5)"><text id="ProcessOnText1143" fill="#000000" font-size="13" x="181.25" y="13.325" font-family="微软雅黑" font-weight="bold" font-style="normal" text-decoration="none" family="微软雅黑" text-anchor="middle" size="13"></text><text id="ProcessOnText1144" fill="#000000" font-size="13" x="181.25" y="29.575" font-family="微软雅黑" font-weight="bold" font-style="normal" text-decoration="none" family="微软雅黑" text-anchor="middle" size="13">+ CharArrayWriter bufferedWriter</text><text id="ProcessOnText1145" fill="#000000" font-size="13" x="181.25" y="45.825" font-family="微软雅黑" font-weight="bold" font-style="normal" text-decoration="none" family="微软雅黑" text-anchor="middle" size="13">+ PrintWriter writer;</text><text id="ProcessOnText1146" fill="#000000" font-size="13" x="181.25" y="62.075" font-family="微软雅黑" font-weight="bold" font-style="normal" text-decoration="none" family="微软雅黑" text-anchor="middle" size="13"></text></g><g id="ProcessOnG1147" transform="matrix(1.0,0.0,0.0,1.0,10.0,102.24999904632568)"><text id="ProcessOnText1148" fill="#000000" font-size="13" x="181.25" y="13.325" font-family="微软雅黑" font-weight="bold" font-style="normal" text-decoration="none" family="微软雅黑" text-anchor="middle" size="13">+ ReactResponseWrapper(HttpServletResponse response);</text><text id="ProcessOnText1149" fill="#000000" font-size="13" x="181.25" y="29.575" font-family="微软雅黑" font-weight="bold" font-style="normal" text-decoration="none" family="微软雅黑" text-anchor="middle" size="13">+ getWriter():PrintWriter;</text><text id="ProcessOnText1150" fill="#000000" font-size="13" x="181.25" y="45.825" font-family="微软雅黑" font-weight="bold" font-style="normal" text-decoration="none" family="微软雅黑" text-anchor="middle" size="13">+ getContent():byte[];</text><text id="ProcessOnText1151" fill="#000000" font-size="13" x="181.25" y="62.075" font-family="微软雅黑" font-weight="bold" font-style="normal" text-decoration="none" family="微软雅黑" text-anchor="middle" size="13">+ sendError(int sc)</text></g></g><g id="ProcessOnG1152"><path id="ProcessOnPath1153" d="M421.5 116.9166669845581L450.0 116.9166669845581L450.0 169.5L460.19523512903754 169.5" stroke="#323232" stroke-width="2.0" stroke-dasharray="none" fill="none" marker-end="url(#ProcessOnMarker1154)"/><g id="ProcessOnG1156" transform="matrix(1.0,0.0,0.0,1.0,450.0,125.93095105679782)"><path id="ProcessOnPath1157" d="M0 0H26.0V16.25H0Z" fill="#fff" transform="matrix(1.0,0.0,0.0,1.0,-13.0,0.0)"/><text id="ProcessOnText1158" fill="#000000" font-size="13" x="0.0" y="13.325" font-family="微软雅黑" font-weight="normal" font-style="normal" text-decoration="none" family="微软雅黑" text-anchor="middle" size="13">组合</text></g></g><g id="ProcessOnG1159" transform="matrix(1.0,0.0,0.0,1.0,984.5,29.0)" opacity="1.0"><path id="ProcessOnPath1160" d="M0.0 4.0Q0.0 0.0 4.0 0.0L382.0 0.0Q386.0 0.0 386.0 4.0L386.0 120.0Q386.0 124.0 382.0 124.0L4.0 124.0Q0.0 124.0 0.0 120.0Z" stroke="#323232" stroke-width="2.0" stroke-dasharray="none" opacity="1.0" fill="#ffffff"/><path id="ProcessOnPath1161" d="M0.0 30.0L386.0 30.0M0.0 60.0L386.0 60.0" stroke="#323232" stroke-width="2.0" stroke-dasharray="none" opacity="1.0" fill="none"/><path id="ProcessOnPath1162" d="M0.0 0.0L386.0 0.0L386.0 124.0L0.0 124.0Z" stroke="none" stroke-width="0.0" stroke-dasharray="none" opacity="1.0" fill="none"/><g id="ProcessOnG1163" transform="matrix(1.0,0.0,0.0,1.0,10.0,6.875)"><text id="ProcessOnText1164" fill="#000000" font-size="13" x="182.0" y="13.325" font-family="微软雅黑" font-weight="bold" font-style="normal" text-decoration="none" family="微软雅黑" text-anchor="middle" size="13">AppContext</text></g><g id="ProcessOnG1165" transform="matrix(1.0,0.0,0.0,1.0,10.0,36.875)"><text id="ProcessOnText1166" fill="#000000" font-size="13" x="182.0" y="13.325" font-family="微软雅黑" font-weight="bold" font-style="normal" text-decoration="none" family="微软雅黑" text-anchor="middle" size="13">+ ReactEngineProxy react</text></g><g id="ProcessOnG1167" transform="matrix(1.0,0.0,0.0,1.0,10.0,59.5)"><text id="ProcessOnText1168" fill="#000000" font-size="13" x="182.0" y="13.325" font-family="微软雅黑" font-weight="bold" font-style="normal" text-decoration="none" family="微软雅黑" text-anchor="middle" size="13"></text><text id="ProcessOnText1169" fill="#000000" font-size="13" x="182.0" y="29.575" font-family="微软雅黑" font-weight="bold" font-style="normal" text-decoration="none" family="微软雅黑" text-anchor="middle" size="13">+ AppContext(String contextPath)；</text><text id="ProcessOnText1170" fill="#000000" font-size="13" x="182.0" y="45.825" font-family="微软雅黑" font-weight="bold" font-style="normal" text-decoration="none" family="微软雅黑" text-anchor="middle" size="13">+ getContextPath():string;</text><text id="ProcessOnText1171" fill="#000000" font-size="13" x="182.0" y="62.075" font-family="微软雅黑" font-weight="bold" font-style="normal" text-decoration="none" family="微软雅黑" text-anchor="middle" size="13"></text></g></g><g id="ProcessOnG1172" transform="matrix(1.0,0.0,0.0,1.0,877.5,202.3333282470703)" opacity="1.0"><path id="ProcessOnPath1173" d="M0.0 4.0Q0.0 0.0 4.0 0.0L499.0 0.0Q503.0 0.0 503.0 4.0L503.0 202.0Q503.0 206.0 499.0 206.0L4.0 206.0Q0.0 206.0 0.0 202.0Z" stroke="#323232" stroke-width="2.0" stroke-dasharray="none" opacity="1.0" fill="#ffffff"/><path id="ProcessOnPath1174" d="M0.0 30.0L503.0 30.0M0.0 110.0L503.0 110.0" stroke="#323232" stroke-width="2.0" stroke-dasharray="none" opacity="1.0" fill="none"/><path id="ProcessOnPath1175" d="M0.0 0.0L503.0 0.0L503.0 206.0L0.0 206.0Z" stroke="none" stroke-width="0.0" stroke-dasharray="none" opacity="1.0" fill="none"/><g id="ProcessOnG1176" transform="matrix(1.0,0.0,0.0,1.0,10.0,6.875)"><text id="ProcessOnText1177" fill="#000000" font-size="13" x="240.5" y="13.325" font-family="微软雅黑" font-weight="bold" font-style="normal" text-decoration="none" family="微软雅黑" text-anchor="middle" size="13">RenderingContext</text></g><g id="ProcessOnG1178" transform="matrix(1.0,0.0,0.0,1.0,10.0,29.375)"><text id="ProcessOnText1179" fill="#000000" font-size="13" x="240.5" y="13.325" font-family="微软雅黑" font-weight="bold" font-style="normal" text-decoration="none" family="微软雅黑" text-anchor="middle" size="13"></text><text id="ProcessOnText1180" fill="#000000" font-size="13" x="240.5" y="29.575" font-family="微软雅黑" font-weight="bold" font-style="normal" text-decoration="none" family="微软雅黑" text-anchor="middle" size="13">+ final AppContext context;</text><text id="ProcessOnText1181" fill="#000000" font-size="13" x="240.5" y="45.825" font-family="微软雅黑" font-weight="bold" font-style="normal" text-decoration="none" family="微软雅黑" text-anchor="middle" size="13">+ final String basename;</text><text id="ProcessOnText1182" fill="#000000" font-size="13" x="240.5" y="62.075" font-family="微软雅黑" font-weight="bold" font-style="normal" text-decoration="none" family="微软雅黑" text-anchor="middle" size="13">+ final String location;</text><text id="ProcessOnText1183" fill="#000000" font-size="13" x="240.5" y="78.325" font-family="微软雅黑" font-weight="bold" font-style="normal" text-decoration="none" family="微软雅黑" text-anchor="middle" size="13"></text></g><g id="ProcessOnG1184" transform="matrix(1.0,0.0,0.0,1.0,10.0,109.25)"><text id="ProcessOnText1185" fill="#000000" font-size="13" x="240.5" y="13.325" font-family="微软雅黑" font-weight="bold" font-style="normal" text-decoration="none" family="微软雅黑" text-anchor="middle" size="13"></text><text id="ProcessOnText1186" fill="#000000" font-size="13" x="240.5" y="29.575" font-family="微软雅黑" font-weight="bold" font-style="normal" text-decoration="none" family="微软雅黑" text-anchor="middle" size="13">+ RenderingContext(AppContext context, String basename, String location);</text><text id="ProcessOnText1187" fill="#000000" font-size="13" x="240.5" y="45.825" font-family="微软雅黑" font-weight="bold" font-style="normal" text-decoration="none" family="微软雅黑" text-anchor="middle" size="13">+  getContext():AppContext;</text><text id="ProcessOnText1188" fill="#000000" font-size="13" x="240.5" y="62.075" font-family="微软雅黑" font-weight="bold" font-style="normal" text-decoration="none" family="微软雅黑" text-anchor="middle" size="13">+ getBasename(): String;</text><text id="ProcessOnText1189" fill="#000000" font-size="13" x="240.5" y="78.325" font-family="微软雅黑" font-weight="bold" font-style="normal" text-decoration="none" family="微软雅黑" text-anchor="middle" size="13">+ getLocation(): String;</text><text id="ProcessOnText1190" fill="#000000" font-size="13" x="240.5" y="94.575" font-family="微软雅黑" font-weight="bold" font-style="normal" text-decoration="none" family="微软雅黑" text-anchor="middle" size="13"></text></g></g><g id="ProcessOnG1191"><path id="ProcessOnPath1192" d="M984.5 75.33333396911621L924.5 75.33333396911621L924.5 169.5L882.8047648709625 169.5" stroke="#323232" stroke-width="2.0" stroke-dasharray="none" fill="none" marker-end="url(#ProcessOnMarker1193)"/><g id="ProcessOnG1195" transform="matrix(1.0,0.0,0.0,1.0,924.5,105.13928454907688)"><path id="ProcessOnPath1196" d="M0 0H26.0V16.25H0Z" fill="#fff" transform="matrix(1.0,0.0,0.0,1.0,-13.0,0.0)"/><text id="ProcessOnText1197" fill="#000000" font-size="13" x="0.0" y="13.325" font-family="微软雅黑" font-weight="normal" font-style="normal" text-decoration="none" family="微软雅黑" text-anchor="middle" size="13">组合</text></g></g><g id="ProcessOnG1198"><path id="ProcessOnPath1199" d="M1129.0 202.3333282470703L1129.0 169.5L882.8047648709625 169.5" stroke="#323232" stroke-width="2.0" stroke-dasharray="none" fill="none" marker-end="url(#ProcessOnMarker1200)"/><g id="ProcessOnG1202" transform="matrix(1.0,0.0,0.0,1.0,1022.3190465590164,161.375)"><path id="ProcessOnPath1203" d="M0 0H26.0V16.25H0Z" fill="#fff" transform="matrix(1.0,0.0,0.0,1.0,-13.0,0.0)"/><text id="ProcessOnText1204" fill="#000000" font-size="13" x="0.0" y="13.325" font-family="微软雅黑" font-weight="normal" font-style="normal" text-decoration="none" family="微软雅黑" text-anchor="middle" size="13">组合</text></g></g></g></g></svg>